<svg xmlns="http://www.w3.org/2000/svg" viewBox="0 0 90 120" role="img" aria-label="jump marker">
  <defs>
    <linearGradient id="jumperSuit" x1="18" x2="72" y1="12" y2="108" gradientUnits="userSpaceOnUse">
      <stop offset="0" stop-color="#38bdf8"/>
      <stop offset=".45" stop-color="#34d399"/>
      <stop offset="1" stop-color="#fbbf24"/>
    </linearGradient>
  </defs>
  <ellipse cx="45" cy="109" rx="27" ry="8" fill="#fbbf24" opacity=".24"/>
  <path d="M18 42c0-21 11-32 27-32s27 11 27 32v34c0 22-11 34-27 34S18 98 18 76V42Z" fill="url(#jumperSuit)" stroke="#fff7ed" stroke-width="3"/>
  <path d="M28 39c0-10 7-18 17-18s17 8 17 18v16c0 10-7 18-17 18s-17-8-17-18V39Z" fill="#fff7ed"/>
  <circle cx="38" cy="48" r="3" fill="#1f2937"/>
  <circle cx="52" cy="48" r="3" fill="#1f2937"/>
  <path d="M38 59c4 4 10 4 14 0" fill="none" stroke="#1f2937" stroke-width="3" stroke-linecap="round"/>
  <path d="M25 34c9-16 29-19 41-3-8-2-18-2-27 1-5 2-10 2-14 2Z" fill="#6d28d9"/>
  <path d="M23 78h44c-3 19-10 28-22 28S26 97 23 78Z" fill="#f472b6" opacity=".82"/>
  <circle cx="65" cy="24" r="7" fill="#fbbf24" stroke="#fff7ed" stroke-width="2"/>
</svg>
